<?xml version="1.0" encoding="UTF-8"?>
<svg version="1.1" xmlns="http://www.w3.org/2000/svg" width="370" height="74">
<path d="M0 0 C5.6597327 3.82815739 11.42889036 8.24545826 15.375 13.875 C15.23520975 17.29986121 14.8110794 18.4389206 12.375 20.875 C8.09868222 20.61969745 6.07027445 19.05029434 3.0625 16.125 C-6.50437025 7.27089327 -16.41283932 2.62911612 -29.625 2.875 C-42.02000701 4.49105788 -50.63214182 10.43421974 -59.30078125 19.1171875 C-61.625 20.875 -61.625 20.875 -64.29296875 21.2578125 C-66.625 20.875 -66.625 20.875 -68.625 18.875 C-69.125 16.6875 -69.125 16.6875 -68.625 13.875 C-53.52938617 -8.55276911 -22.34204217 -13.18087006 0 0 Z " fill="#27A9E2" transform="translate(68.625,7.125)"/>
<path d="M0 0 C1.77734375 1.68359375 1.77734375 1.68359375 3.77734375 4.68359375 C3.45320685 8.00599699 3.16958072 9.29135678 0.77734375 11.68359375 C-2.20901663 12.09281768 -3.65239194 12.10391279 -6.109375 10.29296875 C-6.70363281 9.679375 -7.29789063 9.06578125 -7.91015625 8.43359375 C-13.50358041 3.25993876 -19.56934448 0.55546313 -27.22265625 0.18359375 C-37.53198314 0.69906009 -44.68710267 6.07795955 -52.22265625 12.68359375 C-54.69065672 11.5318602 -56.2704919 10.6357581 -58.22265625 8.68359375 C-58.12957086 5.23943426 -57.33978412 3.82139125 -55.09765625 1.18359375 C-38.62725426 -13.13849494 -17.31462051 -14.05834468 0 0 Z " fill="#27A9E2" transform="translate(68.22265625,26.31640625)"/>
<path d="M0 0 C3.82584126 3.06067301 5.29754015 5.27482901 6.0625 10.125 C6.41120079 14.44461996 5.7414388 17.13925894 3.1875 20.75 C-0.08644132 22.89347728 -2.88538465 23.04787977 -6.75 23.0625 C-7.76964844 23.07925781 -8.78929687 23.09601563 -9.83984375 23.11328125 C-13.27410676 22.69358814 -15.10358484 21.88937293 -17.8125 19.75 C-19.88094009 15.56445064 -19.93127805 11.47454611 -19.1875 6.9375 C-17.77758195 3.66905361 -16.59173842 1.939703 -13.8125 -0.25 C-8.98799824 -1.85816725 -4.6231662 -2.05474053 0 0 Z " fill="#27A9E2" transform="translate(47.8125,51.25)"/>
<path d="M0 0 C3.0625 2.3125 3.0625 2.3125 5 5 C4.8125 8.3125 4.8125 8.3125 4 11 C1.4375 11.75 1.4375 11.75 -2 12 C-3.6572185 10.99267111 -5.31306249 9.9825966 -6.94921875 8.94140625 C-11.10446548 7.03395013 -15.55918393 7.31881287 -20 8 C-22.54710733 9.10660843 -24.64601418 10.49344908 -27 12 C-29.8125 12.375 -29.8125 12.375 -32 12 C-34 10 -34 10 -34.125 6.6875 C-32.72885197 2.11123702 -31.11945536 1.21965388 -27.10546875 -1.0546875 C-18.69600179 -4.83036655 -8.07602054 -4.18222492 0 0 Z " fill="#27A9E2" transform="translate(56,36)"/>
<path d="M0 0 C2.97 0 5.94 0 9 0 C9 0.66 9 1.32 9 2 C8.34 2 7.68 2 7 2 C7.64268437 3.64706553 8.28923802 5.29262175 8.9375 6.9375 C9.29714844 7.85402344 9.65679687 8.77054688 10.02734375 9.71484375 C10.7996218 11.92418533 10.7996218 11.92418533 12 13 C13.17287572 6.31468008 13.17287572 6.31468008 11 0 C13.31 0 15.62 0 18 0 C19.32 4.29 20.64 8.58 22 13 C24.21854707 8.37802694 25.38281159 5.23175837 25 0 C27.31 0 29.62 0 32 0 C31.59394531 0.73863281 31.59394531 0.73863281 31.1796875 1.4921875 C30.19014179 3.5957913 29.39533978 5.63002956 28.6328125 7.8203125 C28.38660156 8.52027344 28.14039063 9.22023438 27.88671875 9.94140625 C27.37731362 11.40170095 26.87735213 12.865323 26.38671875 14.33203125 C24.79964482 18.78077215 24.41488203 19.79255899 20 22 C18.68 19.03 17.36 16.06 16 13 C14.68 15.97 13.36 18.94 12 22 C9 21 9 21 8.04858398 19.3894043 C7.65135132 18.36713745 7.65135132 18.36713745 7.24609375 17.32421875 C6.94896484 16.57849609 6.65183594 15.83277344 6.34570312 15.06445312 C6.04599609 14.28005859 5.74628906 13.49566406 5.4375 12.6875 C4.83323905 11.14926458 4.22780651 9.61148878 3.62109375 8.07421875 C3.22555298 7.04687622 3.22555298 7.04687622 2.82202148 5.9987793 C1.98151747 3.95505896 0.98825501 1.97651002 0 0 Z " fill="#27A9E2" transform="translate(204,12)"/>
<path d="M0 0 C0.99 0 1.98 0 3 0 C5.31 4.29 7.62 8.58 10 13 C12.31954564 9.90727248 13.71720383 7.69759103 15.1875 4.25 C15.53167969 3.45078125 15.87585938 2.6515625 16.23046875 1.828125 C16.61138672 0.92320313 16.61138672 0.92320313 17 0 C17.99 0 18.98 0 20 0 C20.33 6.27 20.66 12.54 21 19 C21.66 19 22.32 19 23 19 C23 19.66 23 20.32 23 21 C20.36 21 17.72 21 15 21 C15.185625 20.05125 15.37125 19.1025 15.5625 18.125 C16.28686632 15.10131207 16.28686632 15.10131207 15 13 C13.68 15.64 12.36 18.28 11 21 C10.01 21 9.02 21 8 21 C6.35 17.7 4.7 14.4 3 11 C2.88679144 16.08303686 2.88679144 16.08303686 4 21 C1.69 21 -0.62 21 -3 21 C-3 20.34 -3 19.68 -3 19 C-2.34 19 -1.68 19 -1 19 C-0.67 12.73 -0.34 6.46 0 0 Z " fill="#27A9E2" transform="translate(128,12)"/>
<path d="M0 0 C2.08218362 -0.10832169 4.16599129 -0.18573541 6.25 -0.25 C7.99023438 -0.31960938 7.99023438 -0.31960938 9.765625 -0.390625 C13 0 13 0 15.43359375 1.8203125 C17 4 17 4 16.8125 7.125 C16 10 16 10 15 12 C17.31 14.64 19.62 17.28 22 20 C20.02 20.99 20.02 20.99 18 22 C14.49352499 19.1310659 11.14718888 16.2682346 8 13 C7.67 14.98 7.34 16.96 7 19 C7.99 19 8.98 19 10 19 C10 19.66 10 20.32 10 21 C6.7 21 3.4 21 0 21 C0 20.34 0 19.68 0 19 C0.66 19 1.32 19 2 19 C1.85913398 16.39547729 1.71251536 13.79149803 1.5625 11.1875 C1.52318359 10.44951172 1.48386719 9.71152344 1.44335938 8.95117188 C1.25618965 5.76928658 1.01279207 3.03837622 0 0 Z M7 3 C7 5.31 7 7.62 7 10 C8.65 9.67 10.3 9.34 12 9 C12 7.35 12 5.7 12 4 C10.35 3.67 8.7 3.34 7 3 Z " fill="#25ACE3" transform="translate(262,12)"/>
<path d="M0 0 C2.08268593 -0.08126087 4.16628658 -0.13930839 6.25 -0.1875 C7.99023438 -0.23970703 7.99023438 -0.23970703 9.765625 -0.29296875 C13.24778347 0.02244416 14.60533124 0.49435878 17 3 C17.51020728 7.08165827 17.31361802 8.52957297 15 12 C15.78375 12.969375 16.5675 13.93875 17.375 14.9375 C17.81585938 15.48277344 18.25671875 16.02804688 18.7109375 16.58984375 C19.9666391 18.13266437 19.9666391 18.13266437 22 19 C21.67 19.99 21.34 20.98 21 22 C16.06789169 20.76697292 13.78225429 19.28039122 11 15 C11 14.34 11 13.68 11 13 C9.68 12.67 8.36 12.34 7 12 C7.34227572 14.97065509 7.34227572 14.97065509 8 18 C8.66 18.33 9.32 18.66 10 19 C10 19.66 10 20.32 10 21 C6.7 21 3.4 21 0 21 C0 20.34 0 19.68 0 19 C0.66 18.67 1.32 18.34 2 18 C2 13.05 2 8.1 2 3 C1.34 2.67 0.68 2.34 0 2 C0 1.34 0 0.68 0 0 Z M7 3 C7 5.31 7 7.62 7 10 C8.65 9.67 10.3 9.34 12 9 C13.01111093 5.95086772 13.01111093 5.95086772 12 3 C10.35 3 8.7 3 7 3 Z " fill="#27A9E2" transform="translate(295,12)"/>
<path d="M0 0 C0.77085937 -0.01417969 1.54171875 -0.02835938 2.3359375 -0.04296875 C4.90163497 0.21535233 6.45125783 0.81436523 8.625 2.1875 C11.4657447 6.30168199 12.12463257 9.47544469 11.2578125 14.2890625 C10.14725416 17.62073753 8.4366105 19.17047508 5.625 21.1875 C1.55215094 22.37232882 -0.61111411 22.45192204 -4.625 21.0625 C-7.71727609 18.95412994 -8.96099386 17.64395946 -10.375 14.1875 C-10.93676034 9.77366877 -10.67579277 7.72892699 -8.5 3.8125 C-5.68709856 0.3377394 -4.29681111 0.0356878 0 0 Z M-5.3125 4.75 C-6.87247784 8.32877269 -6.42138969 10.45973672 -5.375 14.1875 C-3.29042329 17.27327504 -3.29042329 17.27327504 -0.375 19.1875 C3.07116056 19.10735673 4.1806104 18.6318896 6.625 16.1875 C7.07611271 11.60118741 7.20223937 9.25317269 5 5.1875 C2.73702065 2.94670779 2.73702065 2.94670779 -0.4375 2.625 C-3.39441478 2.9525987 -3.39441478 2.9525987 -5.3125 4.75 Z " fill="#26A9E2" transform="translate(188.375,11.8125)"/>
<path d="M0 0 C5.28 0 10.56 0 16 0 C15.67 1.65 15.34 3.3 15 5 C12.36 4.34 9.72 3.68 7 3 C7 4.98 7 6.96 7 9 C10.465 8.505 10.465 8.505 14 8 C13.67 9.65 13.34 11.3 13 13 C10.03 12.505 10.03 12.505 7 12 C7.33 13.98 7.66 15.96 8 18 C11.73487777 17.5020163 13.81237635 17.12508244 17 15 C17.042721 16.66611905 17.04063832 18.33382885 17 20 C16 21 16 21 12.18359375 21.09765625 C10.60153318 21.09098089 9.01948841 21.07901875 7.4375 21.0625 C6.63119141 21.05798828 5.82488281 21.05347656 4.99414062 21.04882812 C2.99606244 21.03700518 0.99802217 21.01906914 -1 21 C-1 20.34 -1 19.68 -1 19 C-0.01 19 0.98 19 2 19 C1.85913398 16.39547729 1.71251536 13.79149803 1.5625 11.1875 C1.52318359 10.44951172 1.48386719 9.71152344 1.44335938 8.95117188 C1.25618965 5.76928658 1.01279207 3.03837622 0 0 Z " fill="#27A8E2" transform="translate(353,12)"/>
<path d="M0 0 C5.28 0 10.56 0 16 0 C15.67 1.65 15.34 3.3 15 5 C14.34 5 13.68 5 13 5 C13 4.34 13 3.68 13 3 C11.02 3 9.04 3 7 3 C7 4.98 7 6.96 7 9 C9.64 8.67 12.28 8.34 15 8 C14.34 9.65 13.68 11.3 13 13 C10.03 12.505 10.03 12.505 7 12 C7.33 13.98 7.66 15.96 8 18 C11.73487777 17.5020163 13.81237635 17.12508244 17 15 C17.33 15.99 17.66 16.98 18 18 C17.34 18.99 16.68 19.98 16 21 C13.2114711 21.22107787 10.65346819 21.28107535 7.875 21.1875 C6.74384766 21.16719727 6.74384766 21.16719727 5.58984375 21.14648438 C3.72625873 21.11109985 1.86304022 21.05729167 0 21 C0 20.34 0 19.68 0 19 C0.66 19 1.32 19 2 19 C2 13.39 2 7.78 2 2 C1.34 2 0.68 2 0 2 C0 1.34 0 0.68 0 0 Z " fill="#27A9E2" transform="translate(240,12)"/>
<path d="M0 0 C5.28 0 10.56 0 16 0 C16 1.65 16 3.3 16 5 C15.01 5 14.02 5 13 5 C13 4.34 13 3.68 13 3 C11.02 3 9.04 3 7 3 C7 4.98 7 6.96 7 9 C9.64 8.67 12.28 8.34 15 8 C14.34 9.65 13.68 11.3 13 13 C10.03 12.505 10.03 12.505 7 12 C7.33 13.98 7.66 15.96 8 18 C11.73487777 17.5020163 13.81237635 17.12508244 17 15 C17.33 15.99 17.66 16.98 18 18 C17.34 18.99 16.68 19.98 16 21 C13.2114711 21.22107787 10.65346819 21.28107535 7.875 21.1875 C6.74384766 21.16719727 6.74384766 21.16719727 5.58984375 21.14648438 C3.72625873 21.11109985 1.86304022 21.05729167 0 21 C0 20.34 0 19.68 0 19 C0.66 18.67 1.32 18.34 2 18 C2 13.05 2 8.1 2 3 C1.34 2.67 0.68 2.34 0 2 C0 1.34 0 0.68 0 0 Z " fill="#27A8E2" transform="translate(103,12)"/>
<path d="M0 0 C2.06183633 -0.08150744 4.12461349 -0.1394194 6.1875 -0.1875 C7.33605469 -0.22230469 8.48460937 -0.25710938 9.66796875 -0.29296875 C13.32348346 0.02844227 15.16117132 0.69838936 18 3 C18.49000212 6.43001482 18.65546779 8.77099789 17 11.875 C13.8045594 13.67243534 10.63526893 13.70202714 7 14 C7.34786708 15.97536745 7.34786708 15.97536745 8 18 C8.66 18.33 9.32 18.66 10 19 C10 19.66 10 20.32 10 21 C6.7 21 3.4 21 0 21 C0 20.34 0 19.68 0 19 C0.66 18.67 1.32 18.34 2 18 C2 13.05 2 8.1 2 3 C1.34 2.67 0.68 2.34 0 2 C0 1.34 0 0.68 0 0 Z M7 3 C7 5.64 7 8.28 7 11 C9.41645782 11.16687448 9.41645782 11.16687448 12 11 C12.66 10.34 13.32 9.68 14 9 C13.71016731 5.69316534 13.71016731 5.69316534 12 3 C10.33382885 2.95936168 8.66611905 2.957279 7 3 Z " fill="#28A9E2" transform="translate(155,12)"/>
<path d="M0 0 C0.33 1.65 0.66 3.3 1 5 C-1.64 4.34 -4.28 3.68 -7 3 C-5.8827514 6.35174581 -4.26252041 7.57248726 -1.375 9.375 C1.91979769 11.59898844 1.91979769 11.59898844 2.625 15.125 C2 18 2 18 0.875 19.8125 C-1.75961227 21.48108777 -3.90103365 21.81026737 -7 22 C-9.375 21.0625 -9.375 21.0625 -11 20 C-11 18.68 -11 17.36 -11 16 C-9.88625 16.5259375 -9.88625 16.5259375 -8.75 17.0625 C-5.86770391 18.04510094 -4.75694758 18.18154896 -2 17 C-1.67 16.34 -1.34 15.68 -1 15 C-2.0828125 14.62875 -2.0828125 14.62875 -3.1875 14.25 C-6.37512304 12.83327865 -8.56177223 11.50789142 -11 9 C-11.51955068 5.81775209 -11.52364827 3.98184051 -10 1.125 C-6.74686316 -0.70488947 -3.68609891 -0.18128355 0 0 Z " fill="#26AAE2" transform="translate(346,12)"/>
<path d="M0 0 C2.97 0 5.94 0 9 0 C9 0.66 9 1.32 9 2 C8.34 2 7.68 2 7 2 C7 7.28 7 12.56 7 18 C7.66 18.33 8.32 18.66 9 19 C9 19.66 9 20.32 9 21 C6.03 21 3.06 21 0 21 C0 20.34 0 19.68 0 19 C0.66 19 1.32 19 2 19 C1.85913398 16.39547729 1.71251536 13.79149803 1.5625 11.1875 C1.52318359 10.44951172 1.48386719 9.71152344 1.44335938 8.95117188 C1.25618965 5.76928658 1.01279207 3.03837622 0 0 Z " fill="#27A9E2" transform="translate(321,12)"/>
<path d="M0 0 C1.98 0 3.96 0 6 0 C6 3.63 6 7.26 6 11 C4 11 2 11 0 11 C0 7.37 0 3.74 0 0 Z M2 2 C2 3.32 2 4.64 2 6 C2.66 6 3.32 6 4 6 C4 4.68 4 3.36 4 2 C3.34 2 2.68 2 2 2 Z " fill="#26AAE2" transform="translate(300,45)"/>
<path d="M0 0 C1.65 0 3.3 0 5 0 C5.33 0.99 5.66 1.98 6 3 C5.01 3 4.02 3 3 3 C4.32 3.99 5.64 4.98 7 6 C6.67 7.32 6.34 8.64 6 10 C4.35 10.33 2.7 10.66 1 11 C0.67 10.01 0.34 9.02 0 8 C0.99 7.67 1.98 7.34 3 7 C2.01 6.34 1.02 5.68 0 5 C-0.1875 2.375 -0.1875 2.375 0 0 Z " fill="#23ABE4" transform="translate(106,45)"/>
<path d="M0 0 C0.66 0 1.32 0 2 0 C2 1.32 2 2.64 2 4 C2.99 4 3.98 4 5 4 C5 2.68 5 1.36 5 0 C5.66 0 6.32 0 7 0 C7 3.63 7 7.26 7 11 C6.34 11 5.68 11 5 11 C5 9.35 5 7.7 5 6 C4.01 6 3.02 6 2 6 C2 7.65 2 9.3 2 11 C1.34 11 0.68 11 0 11 C0 7.37 0 3.74 0 0 Z " fill="#27A9E1" transform="translate(202,45)"/>
<path d="M0 0 C0.66 0 1.32 0 2 0 C2 1.32 2 2.64 2 4 C2.99 4 3.98 4 5 4 C5 2.68 5 1.36 5 0 C5.66 0 6.32 0 7 0 C7 3.63 7 7.26 7 11 C6.34 11 5.68 11 5 11 C5 9.35 5 7.7 5 6 C4.01 6 3.02 6 2 6 C2 7.65 2 9.3 2 11 C1.34 11 0.68 11 0 11 C0 7.37 0 3.74 0 0 Z " fill="#27A8E1" transform="translate(120,45)"/>
<path d="M0 0 C0.66 0 1.32 0 2 0 C2.33 2.97 2.66 5.94 3 9 C3.66 8.67 4.32 8.34 5 8 C5.46523063 6.10466658 5.46523063 6.10466658 5.625 3.9375 C5.74875 2.638125 5.8725 1.33875 6 0 C6.66 0 7.32 0 8 0 C8.05399736 1.45792884 8.09279177 2.91642712 8.125 4.375 C8.14820313 5.18710937 8.17140625 5.99921875 8.1953125 6.8359375 C8 9 8 9 6 11 C1.44444444 10.44444444 1.44444444 10.44444444 0 9 C-0.07179964 7.48071962 -0.08392007 5.95832518 -0.0625 4.4375 C-0.05347656 3.61121094 -0.04445313 2.78492188 -0.03515625 1.93359375 C-0.02355469 1.29550781 -0.01195312 0.65742187 0 0 Z " fill="#26A9E3" transform="translate(284,45)"/>
<path d="M0 0 C0.66 0 1.32 0 2 0 C2.33 2.64 2.66 5.28 3 8 C3.66 8 4.32 8 5 8 C5.33 5.36 5.66 2.72 6 0 C6.66 0 7.32 0 8 0 C8.05399736 1.45792884 8.09279177 2.91642712 8.125 4.375 C8.14820313 5.18710937 8.17140625 5.99921875 8.1953125 6.8359375 C8 9 8 9 6 11 C1.44444444 10.44444444 1.44444444 10.44444444 0 9 C-0.07179964 7.48071962 -0.08392007 5.95832518 -0.0625 4.4375 C-0.05347656 3.61121094 -0.04445312 2.78492188 -0.03515625 1.93359375 C-0.02355469 1.29550781 -0.01195312 0.65742187 0 0 Z " fill="#28A9E1" transform="translate(255,45)"/>
<path d="M0 0 C0.99 0 1.98 0 3 0 C4.19287411 3.87684087 5 6.91621923 5 11 C4.34 11 3.68 11 3 11 C3 10.01 3 9.02 3 8 C2.01 8 1.02 8 0 8 C0 8.99 0 9.98 0 11 C-0.66 11 -1.32 11 -2 11 C-1.125 3.375 -1.125 3.375 0 0 Z " fill="#27ACE4" transform="translate(137,45)"/>
<path d="M0 0 C1.98 0 3.96 0 6 0 C6 2.31 6 4.62 6 7 C4.68 7.33 3.36 7.66 2 8 C2 8.99 2 9.98 2 11 C1.34 11 0.68 11 0 11 C0 7.37 0 3.74 0 0 Z M2 2 C2 3.32 2 4.64 2 6 C2.66 6 3.32 6 4 6 C4 4.68 4 3.36 4 2 C3.34 2 2.68 2 2 2 Z " fill="#28A8E1" transform="translate(150,45)"/>
<path d="M0 0 C1.98 0 3.96 0 6 0 C6 0.66 6 1.32 6 2 C4.68 2 3.36 2 2 2 C2 2.66 2 3.32 2 4 C2.99 4 3.98 4 5 4 C5 4.66 5 5.32 5 6 C4.01 6 3.02 6 2 6 C2 6.99 2 7.98 2 9 C3.32 9 4.64 9 6 9 C6 9.66 6 10.32 6 11 C4.02 11 2.04 11 0 11 C0 7.37 0 3.74 0 0 Z " fill="#28A9E1" transform="translate(314,45)"/>
<path d="M0 0 C1.98 0 3.96 0 6 0 C6 0.66 6 1.32 6 2 C4.68 2 3.36 2 2 2 C2 2.66 2 3.32 2 4 C2.99 4 3.98 4 5 4 C5 4.66 5 5.32 5 6 C4.01 6 3.02 6 2 6 C2 6.99 2 7.98 2 9 C3.32 9 4.64 9 6 9 C6 9.66 6 10.32 6 11 C4.02 11 2.04 11 0 11 C0 7.37 0 3.74 0 0 Z " fill="#27A8E2" transform="translate(217,45)"/>
<path d="M0 0 C1.98 0 3.96 0 6 0 C5.67 0.66 5.34 1.32 5 2 C4.01 2 3.02 2 2 2 C2 2.66 2 3.32 2 4 C2.99 4 3.98 4 5 4 C5 4.66 5 5.32 5 6 C4.01 6 3.02 6 2 6 C2 6.99 2 7.98 2 9 C3.32 9.33 4.64 9.66 6 10 C5.67 10.33 5.34 10.66 5 11 C3.35 11 1.7 11 0 11 C0 7.37 0 3.74 0 0 Z " fill="#26A9E2" transform="translate(164,45)"/>
<path d="M0 0 C2.31 0 4.62 0 7 0 C7 0.66 7 1.32 7 2 C6.34 2 5.68 2 5 2 C5 4.64 5 7.28 5 10 C4.01 10 3.02 10 2 10 C2 7.36 2 4.72 2 2 C1.34 2 0.68 2 0 2 C0 1.34 0 0.68 0 0 Z " fill="#25A9E2" transform="translate(270,45)"/>
<path d="M0 0 C1.98 0 3.96 0 6 0 C6 0.66 6 1.32 6 2 C4.68 2 3.36 2 2 2 C2 2.66 2 3.32 2 4 C2.99 4 3.98 4 5 4 C5 4.66 5 5.32 5 6 C4.01 6 3.02 6 2 6 C2 7.65 2 9.3 2 11 C1.34 11 0.68 11 0 11 C0 7.37 0 3.74 0 0 Z " fill="#27A9E1" transform="translate(242,45)"/>
<path d="M0 0 C2.31 0 4.62 0 7 0 C7 0.66 7 1.32 7 2 C6.01 2 5.02 2 4 2 C4 4.97 4 7.94 4 11 C3.34 11 2.68 11 2 11 C2 8.03 2 5.06 2 2 C1.34 2 0.68 2 0 2 C0 1.34 0 0.68 0 0 Z " fill="#27A9E1" transform="translate(188,45)"/>
</svg>
